# xmcd CD database file
#
# Track frame offsets:
#	150
#	15340
#	33964
#	43632
#	58380
#	72324
#	87243
#	99962
#	113075
#	127119
#	141996
#	154115
#	167936
#	182105
#	196797
#	209356
#	221768
#	234850
#	243307
#	258486
#
# Disc length: 3641 seconds
#
# Revision: 0
# Processed by: cddbd v1.5.2PL0 Copyright (c) Steve Scherf et al.
# Submitted via: CDex 1.51
#
DISCID=1c0e3714
DTITLE=Billie Holiday - Retrospective - CD 1
DYEAR=2006
DGENRE=Jazz
TTITLE0=Trav'lin' Light
TTITLE1=I Love My Man
TTITLE2=I'm Gonna Lock My Heart
TTITLE3=Any Old Time
TTITLE4=They Say
TTITLE5=Solitude
TTITLE6=Sugar
TTITLE7=You Go To My Head
TTITLE8=If Dreams Come True
TTITLE9=Fine And Mellow
TTITLE10=(I Got A Man, Crazy For Me) He's Funny That Way
TTITLE11=I'll Never Be The Same
TTITLE12=Mean To Me
TTITLE13=Strange Fruit
TTITLE14=You're A Lucky Guy
TTITLE15=The Very Thought Of You
TTITLE16=You're So Desirable
TTITLE17=Swing, Brother Swing
TTITLE18=Things Are Looking Up
TTITLE19=Eeeny Meeny Miney Mo
EXTD=YEAR: 2006
EXTT0=
EXTT1=
EXTT2=
EXTT3=
EXTT4=
EXTT5=
EXTT6=
EXTT7=
EXTT8=
EXTT9=
EXTT10=
EXTT11=
EXTT12=
EXTT13=
EXTT14=
EXTT15=
EXTT16=
EXTT17=
EXTT18=
EXTT19=
PLAYORDER=
